<svg xmlns="http://www.w3.org/2000/svg" width="46.126" height="17.956" viewBox="0 0 46.126 17.956"><defs><style>.a{fill:#262626;}.b{fill:#95c11f;}</style></defs><path class="a" d="M21.251,162.5H18.3v-2.563h8.715V162.5H24.07v15.38h-2.82Zm6.613-2.563h2.82v7.305h3.025v-7.305h2.82v17.943H33.708V169.8H30.684v8.074h-2.82Zm10.253,0h7.69V162.5h-4.87v4.742h3.871V169.8H40.937v5.511h4.87v2.563h-7.69Z" transform="translate(-18.303 -159.922)"/><path class="a" d="M350.713,159.935h3.819l2.922,17.943h-2.82l-.513-3.563v.051h-3.2l-.513,3.512h-2.615Zm3.076,12-1.256-8.869h-.051l-1.23,8.869Zm4.512-12h2.82v17.943H358.3Z" transform="translate(-314.994 -159.922)"/><rect class="b" width="2.688" height="17.956" transform="translate(28.967 0)"/></svg>