<svg xmlns="http://www.w3.org/2000/svg" width="39.739" height="22.617" viewBox="0 0 39.739 22.617"><defs><style>.a{fill:#2e2c2c;}.b{fill:#1ae4ff;}.c{fill:#ff1f3d;}</style></defs><g transform="translate(0.531 1.129)"><path class="a" d="M307.975,171.836h-.906l-1.578,5.407h-.722l-1.578-5.407h.885l-.328-1.123H300l.273.829h-.242l1.886,5.7h-1.157l.595,1.8h.445l.833,2.517v3.334h1.141v2.072h-1.141v3.481h3.28v-3.481h1.141v-2.072h-1.141v-3.334l.833-2.517H306.3l.595-1.8h1.157l1.789-5.407h.905l.372-1.123H308.3Zm-3.641,5.407L304,178.378h-.06l-.331-1.135Z" transform="translate(-275.613 -170.4)"/><path class="a" d="M399.634,168.2l-.328,1.123h1.5l.371-1.123Z" transform="translate(-362.564 -168.201)"/><path class="a" d="M217.475,176.942h-.445v-1.8h1.157v-1.579a5.466,5.466,0,0,0-1.282-3.877,5.671,5.671,0,0,0-7.4,0,5.462,5.462,0,0,0-1.282,3.877v1.579h-1.157v.541a8.168,8.168,0,0,0,.093,1.257h.445a4.445,4.445,0,0,0,4.888,3.992,6.534,6.534,0,0,0,1.7-.208v2.068h1.141v1.448c0,.224-.009.431-.025.624h-1.141a2.593,2.593,0,0,1-.422,1.374,1.641,1.641,0,0,1-1.372.567q-1.7,0-1.7-2.058v-1.4h-3.1v.049a5.533,5.533,0,0,0,1.253,3.892,4.7,4.7,0,0,0,3.639,1.357q4.18,0,4.872-3.78h1.141a9.149,9.149,0,0,0,.138-1.648v-.424h-1.141Zm-3.28.082q0,2.058-1.7,2.058t-1.7-2.058v-.082h-.445v-1.8h1.157v-2.962q0-2.028,1.7-2.028t1.7,2.028v2.962h-1.157v1.8h.445Z" transform="translate(-194.248 -168.302)"/><path class="a" d="M124.911,177.8q-.518-.45-.932-.858h-.445a8.7,8.7,0,0,1-1.29-1.528c-.055-.089-.106-.179-.154-.27h1.157a3.91,3.91,0,0,1-.457-1.848,3.819,3.819,0,0,1,.041-.57,4.036,4.036,0,0,1-.041-.574q0-2,1.64-2a1.513,1.513,0,0,1,1.222.492,2.4,2.4,0,0,1,.418,1.566v1.074h3.1a5.49,5.49,0,0,0-1.2-3.613,4.523,4.523,0,0,0-3.564-1.357,4.706,4.706,0,0,0-3.638,1.357,5.108,5.108,0,0,0-1.233,3.226,6.571,6.571,0,0,0,.546,2.245h-1.157c.073.164.151.326.239.483a8.6,8.6,0,0,0,.925,1.315h.445a18.1,18.1,0,0,0,1.908,1.921,11.049,11.049,0,0,1,2.207,2.4,4.753,4.753,0,0,1,.564,2.866,5.313,5.313,0,0,1,.033.589,2.394,2.394,0,0,1-.432,1.6,1.6,1.6,0,0,1-1.268.492q-1.7,0-1.7-2.028v-.252h-.813v-1.18h-3.1v.049a8.907,8.907,0,0,0,.069,1.13h.813a4.945,4.945,0,0,0,1.154,2.761,4.607,4.607,0,0,0,3.609,1.357,4.767,4.767,0,0,0,3.683-1.372,5.248,5.248,0,0,0,1.25-3.352,6.936,6.936,0,0,0-.757-2.87A12.289,12.289,0,0,0,124.911,177.8Z" transform="translate(-116.197 -168.302)"/><rect class="a" width="1.387" height="0.891" transform="translate(0 13.836)"/><rect class="a" width="1.238" height="0.834" transform="translate(32.364 14.486)"/></g><g transform="translate(0 1.129)"><path class="b" d="M117.994,290.633a8.906,8.906,0,0,1-.069-1.131v1.131Z" transform="translate(-115.666 -274.408)"/><path class="b" d="M207.069,227.535v1.144c0,.038,0,.075,0,.113h.091A8.168,8.168,0,0,1,207.069,227.535Z" transform="translate(-193.717 -220.152)"/><rect class="b" width="0.445" height="0.578" transform="translate(23.312 8.062)"/><path class="b" d="M160.3,186.222v-1.074a2.4,2.4,0,0,0-.418-1.566,1.513,1.513,0,0,0-1.222-.492q-1.641,0-1.64,2a4.037,4.037,0,0,0,.041.574,1.477,1.477,0,0,1,1.6-1.428,1.513,1.513,0,0,1,1.222.492,2.4,2.4,0,0,1,.418,1.566v1.074h3.1V186.5c0-.094,0-.187,0-.279Z" transform="translate(-149.9 -181.238)"/><path class="b" d="M131.225,207.382a6.568,6.568,0,0,1-.546-2.246q-.02.295-.02.608a7.217,7.217,0,0,0,.183,1.639Z" transform="translate(-126.815 -200.54)"/><rect class="b" width="3.28" height="1.144" transform="translate(27.547 20.045)"/><rect class="b" width="1.142" height="0.578" transform="translate(27.546 15.985)"/><rect class="b" width="1.141" height="0.578" transform="translate(30.828 16.564)"/><path class="b" d="M244.432,184.235q1.7,0,1.7,2.028v-1.144q0-2.028-1.7-2.028t-1.7,2.028v1.144Q242.732,184.235,244.432,184.235Z" transform="translate(-224.943 -181.238)"/><path class="b" d="M298.875,289.713c.008-.164.013-.332.013-.5v-1.144a9.146,9.146,0,0,1-.139,1.648Z" transform="translate(-273.989 -273.15)"/><path class="b" d="M386.363,171.836h.378l.372-1.123h-.378Z" transform="translate(-350.7 -170.4)"/><path class="b" d="M411.764,168.2l-.371,1.123h.59l.372-1.123Z" transform="translate(-372.616 -168.201)"/><path class="b" d="M364.71,185.143h.378l1.789-5.407H366.5Z" transform="translate(-331.742 -178.3)"/><path class="b" d="M298.873,177.243h.378l-1.886-5.7h.242l-.273-.829h-.378l.273.829h-.242Z" transform="translate(-272.419 -170.4)"/><path class="b" d="M350.629,224.987h.378l.595-1.8h-.378Z" transform="translate(-319.413 -216.346)"/><path class="b" d="M303.061,223.189l.595,1.8h.378l-.595-1.8Z" transform="translate(-277.764 -216.346)"/><path class="b" d="M123.55,224.987h.445a13.791,13.791,0,0,0,2.734,3.065,11.044,11.044,0,0,1,2.207,2.4,4.231,4.231,0,0,1,.564,1.722,4.752,4.752,0,0,0-.564-2.866,11.049,11.049,0,0,0-2.207-2.4,18.1,18.1,0,0,1-1.908-1.921h-.445a8.6,8.6,0,0,1-.925-1.315c-.087-.157-.166-.319-.239-.483h-.384a6.215,6.215,0,0,0,.622,1.627Q123.5,224.9,123.55,224.987Z" transform="translate(-119.959 -216.347)"/><path class="b" d="M347.511,240.155V241.3l1.211-3.661h-.378Z" transform="translate(-316.683 -228.997)"/><path class="b" d="M312.626,240.155l-.833-2.517h-.378l1.211,3.661Z" transform="translate(-285.079 -228.997)"/><path class="b" d="M215.638,242.772a6.533,6.533,0,0,0,1.7-.208v-1.144a6.537,6.537,0,0,1-1.7.208,4.445,4.445,0,0,1-4.888-3.992h-.091a5.4,5.4,0,0,0,1.28,3.764A4.818,4.818,0,0,0,215.638,242.772Z" transform="translate(-196.861 -228.997)"/><path class="b" d="M216.013,294.751a4.7,4.7,0,0,1-3.638-1.357,5.532,5.532,0,0,1-1.253-3.892v1.144a5.532,5.532,0,0,0,1.253,3.892,4.7,4.7,0,0,0,3.638,1.357q4.771,0,5-4.923h-.126Q220.192,294.75,216.013,294.751Z" transform="translate(-197.266 -274.408)"/><path class="b" d="M132.969,297.072a4.767,4.767,0,0,1-3.683,1.372,4.607,4.607,0,0,1-3.608-1.357,4.945,4.945,0,0,1-1.154-2.761h-.069v.013a5.619,5.619,0,0,0,1.223,3.892,4.607,4.607,0,0,0,3.608,1.357,4.766,4.766,0,0,0,3.683-1.372,5.594,5.594,0,0,0,1.268-3.937c0-.19-.007-.376-.018-.559A5.248,5.248,0,0,1,132.969,297.072Z" transform="translate(-121.384 -278.101)"/><path class="b" d="M100.3,279.388h-.531V280.6h1.918v-.319H100.3Z" transform="translate(-99.772 -265.552)"/><path class="b" d="M362.195,284.613h-.274v1.277h1.512v-.443h-1.238Z" transform="translate(-329.3 -270.127)"/></g><g transform="translate(0.531)"><rect class="c" width="1.142" height="0.578" transform="translate(27.016 15.621)"/><rect class="c" width="1.142" height="0.578" transform="translate(30.296 15.043)"/><rect class="c" width="1.157" height="0.578" transform="translate(12.821 7.394)"/><rect class="c" width="1.157" height="0.578" transform="translate(19.501 7.394)"/><rect class="c" width="1.157" height="0.578" transform="translate(22.782 7.972)"/><rect class="c" width="1.141" height="0.578" transform="translate(23.226 15.043)"/><path class="c" d="M157.024,204.331a3.91,3.91,0,0,0,.457,1.848h.821a6.664,6.664,0,0,1-.667-.874,3.97,3.97,0,0,1-.57-1.544A3.821,3.821,0,0,0,157.024,204.331Z" transform="translate(-150.431 -198.207)"/><path class="c" d="M142.851,292.312h.108a3.306,3.306,0,0,1-.108-.892Z" transform="translate(-138.021 -274.958)"/><rect class="c" width="3.102" height="1.144" transform="translate(1.728 15.031)"/><path class="c" d="M131.911,161.625a4.706,4.706,0,0,1,3.638-1.357,4.523,4.523,0,0,1,3.564,1.357,5.49,5.49,0,0,1,1.2,3.613h0v-.865a5.668,5.668,0,0,0-1.208-3.892,4.523,4.523,0,0,0-3.564-1.357,4.706,4.706,0,0,0-3.638,1.357,5.444,5.444,0,0,0-1.253,3.832c0,.182.008.36.02.536A5.107,5.107,0,0,1,131.911,161.625Z" transform="translate(-127.345 -159.124)"/><rect class="c" width="3.102" height="1.144" transform="translate(13.325 15.031)"/><path class="c" d="M271.328,288.874c.016-.193.026-.4.026-.624v-1.144a4,4,0,0,1-.305,1.768Z" transform="translate(-250.267 -271.18)"/><path class="c" d="M226.33,164.373a5.466,5.466,0,0,0-1.282-3.877,5.671,5.671,0,0,0-7.4,0,5.462,5.462,0,0,0-1.282,3.877v1.144a5.462,5.462,0,0,1,1.282-3.877,5.671,5.671,0,0,1,7.4,0,5.466,5.466,0,0,1,1.282,3.877Z" transform="translate(-202.391 -159.124)"/><path class="c" d="M361.429,163.788h.334l.328-1.123H364.9l.378-1.144h-3.191Z" transform="translate(-329.401 -161.223)"/><path class="c" d="M397.195,161.522l-.57,1.954h.334l.328-1.123h1.548l.275-.831Z" transform="translate(-360.216 -161.223)"/><path class="c" d="M329.384,224.323h.06l.331-1.135h-.722Z" transform="translate(-301.053 -215.217)"/><path class="c" d="M259.639,229.106a3.131,3.131,0,0,1-.158,1.062h.158Z" transform="translate(-240.138 -220.398)"/><path class="c" d="M233.432,230.168h.158a3.136,3.136,0,0,1-.158-1.062Z" transform="translate(-217.331 -220.398)"/><path class="c" d="M238.707,238.633a1.472,1.472,0,0,1-1.541-1h-.158v.082q0,2.058,1.7,2.058t1.7-2.058v-.082h-.158A1.472,1.472,0,0,1,238.707,238.633Z" transform="translate(-220.461 -227.867)"/><path class="c" d="M154.543,224.987H154.1c-.105-.095-.212-.19-.322-.286a16.821,16.821,0,0,1-1.555-1.512H151.4c.048.091.1.181.154.27a8.705,8.705,0,0,0,1.29,1.528h.445q.415.407.932.858a12.289,12.289,0,0,1,2.833,3.251,6.935,6.935,0,0,1,.757,2.87c.012-.19.018-.384.018-.585a7.22,7.22,0,0,0-.776-3.43A11.586,11.586,0,0,0,154.543,224.987Z" transform="translate(-145.506 -215.217)"/><path class="c" d="M239.12,292.67a1.641,1.641,0,0,1-1.372.567q-1.7,0-1.7-2.058v1.144q0,2.058,1.7,2.058a1.641,1.641,0,0,0,1.372-.567,2.592,2.592,0,0,0,.422-1.374h-.28A1.409,1.409,0,0,1,239.12,292.67Z" transform="translate(-219.621 -274.747)"/><path class="c" d="M152.348,296.436a1.6,1.6,0,0,1-1.268.492,1.478,1.478,0,0,1-1.592-1.136h-.108v.252q0,2.028,1.7,2.028a1.6,1.6,0,0,0,1.268-.492,2.394,2.394,0,0,0,.432-1.6,5.326,5.326,0,0,0-.033-.589A1.913,1.913,0,0,1,152.348,296.436Z" transform="translate(-143.739 -278.438)"/><rect class="c" width="1.387" height="0.57" transform="translate(0 14.395)"/><path class="c" d="M364.118,281.5h1.239v.834h.273v-1.277h-1.512Z" transform="translate(-331.754 -265.88)"/><path class="c" d="M300.536,162.665h.551l.328,1.123h.334l-.661-2.267h-4.131l.378,1.144h3.2Z" transform="translate(-272.95 -161.223)"/><path class="c" d="M327.643,185.134h-.06l-1.575-5.4h-.334l1.578,5.407h.722l1.578-5.407h-.334Z" transform="translate(-298.094 -177.171)"/></g></svg>